<?xml version="1.0" encoding="utf-8"?>
<!-- Generator: Adobe Illustrator 16.0.4, SVG Export Plug-In . SVG Version: 6.00 Build 0)  -->
<!DOCTYPE svg PUBLIC "-//W3C//DTD SVG 1.1//EN" "http://www.w3.org/Graphics/SVG/1.1/DTD/svg11.dtd">
<svg version="1.1" id="Layer_1" xmlns="http://www.w3.org/2000/svg" xmlns:xlink="http://www.w3.org/1999/xlink" x="0px" y="0px"
	 width="430.4px" height="255.1px" viewBox="0 0 430.4 255.1" enable-background="new 0 0 430.4 255.1" xml:space="preserve">
<path fill="#FFFFFF" d="M290.3,180.2L246.6,15.7c-0.3-1.2-1.3-2-2.5-2h-59c-1.2,0-2.2,0.8-2.5,1.9l-44,164.5c-0.2,0.8,0,1.6,0.5,2.3
	c0.5,0.6,1.3,1,2.1,1H187c1.2,0,2.3-0.8,2.5-2l5.7-22.5h32.4l4.7,22.4c0.3,1.2,1.3,2.1,2.6,2.1h52.8c0.8,0,1.6-0.4,2.1-1
	C290.3,181.8,290.5,180.9,290.3,180.2z M219.9,121.7h-15.5l8.4-37.5L219.9,121.7z M299.3,241.4H129.5c-1.7,0-3.1-1.4-3.1-3.1v-20.2
	c0-1.7,1.4-3.1,3.1-3.1h169.7c1.7,0,3.1,1.4,3.1,3.1v20.2C302.3,240,300.9,241.4,299.3,241.4z"/>
</svg>
