<?xml version="1.0" encoding="utf-8"?>
<!-- Generator: Adobe Illustrator 18.1.1, SVG Export Plug-In . SVG Version: 6.00 Build 0)  -->
        <svg class="fill" version="1.1" xmlns="http://www.w3.org/2000/svg" xmlns:xlink="http://www.w3.org/1999/xlink" x="0px" y="0px"
     viewBox="0 0 223.5 99" enable-background="new 0 0 223.5 99" xml:space="preserve">
        <g>
            <path d="M15.3,14.4v70.1h194.3V14.4H15.3z M203.7,78.6H21.1V20.2h182.6V78.6z"/>
            <path d="M200.6,23.7H24v51.4h176.6V23.7z M28.8,62.5h-2.2V36.3h2.2V62.5z M78.9,68.6h-3.4v-3.3h-1.6v7.2H31.1v-8.3h4.3v-1.6h-4.3
                V36.3h4.3v-1.6h-4.3v-8.3h42.7v6.9h1.6v-3.3h3.4V68.6z M134.4,68.6H131v-3.3h-1.6v7.2H86.3v-7.2h-1.6v3.3h-3.4V29.9h3.4v3.3h1.6
                v-6.9h43.1v6.9h1.6v-3.3h3.4V68.6z M193.7,34.6h-4.6v1.6h4.6v26.3h-4.6v1.6h4.6v8.3h-51.9v-7.2h-1.6v3.3h-3.4V29.9h3.4v3.3h1.6
                v-6.9h51.9V34.6z M197.9,62.5H196V36.3h1.9V62.5z"/>
            <path d="M62.6,33.4H56L39.5,53.7V56h12.1v5.5h-3.4V64h17.6v-2.5h-3.2V56h3.2v-2.3h-3.2V33.4z M51.5,53.6h-8.9L51.5,43V53.6z"/>
            <path d="M123.6,61.5l-11.2-28.3h-8.8l-9.2,26.7l-1.9,1.6h-1.4V64h8.8v-2.5h-1.3l-1.9-1.4l2-5.7h8.3l2.9,7.1h-3.4V64h18.8v-2.5
                H123.6z M99.6,51.9l3-8.7l3.5,8.7H99.6z"/>
            <path d="M184.3,48.5c0-7.7-4.7-15.2-14.1-15.2h-20.8V36h3.2v25.4h-3.2v2.5h20.8C179.6,63.9,184.3,56.2,184.3,48.5z M169.4,61.3
                h-3.7V36h3.7V61.3z"/>
        </g>
        </svg>
